<svg width="40" height="41" viewBox="0 0 40 41" fill="none" xmlns="http://www.w3.org/2000/svg">
<path d="M20 7.1665C12.635 7.1665 6.66663 13.1365 6.66663 20.4998C6.66663 27.8632 12.635 33.8332 20 33.8332C27.365 33.8332 33.3333 27.8632 33.3333 20.4998C33.3333 13.1365 27.365 7.1665 20 7.1665ZM26.1783 24.3215C26.4908 24.634 26.6664 25.0579 26.6664 25.4998C26.6664 25.9418 26.4908 26.3657 26.1783 26.6782C25.8658 26.9907 25.4419 27.1663 25 27.1663C24.558 27.1663 24.1341 26.9907 23.8216 26.6782L20 22.8565L16.1783 26.6782C16.0239 26.8335 15.8403 26.9567 15.638 27.0408C15.4358 27.1249 15.219 27.1682 15 27.1682C14.7809 27.1682 14.5641 27.1249 14.3619 27.0408C14.1596 26.9567 13.976 26.8335 13.8216 26.6782C13.6667 26.5235 13.5438 26.3399 13.46 26.1377C13.3761 25.9355 13.333 25.7187 13.333 25.4998C13.333 25.2809 13.3761 25.0642 13.46 24.862C13.5438 24.6598 13.6667 24.4762 13.8216 24.3215L17.6433 20.4998L13.8216 16.6782C13.5091 16.3657 13.3335 15.9418 13.3335 15.4998C13.3335 15.0579 13.5091 14.634 13.8216 14.3215C14.1341 14.009 14.558 13.8334 15 13.8334C15.4419 13.8334 15.8658 14.009 16.1783 14.3215L20 18.1432L23.8216 14.3215C24.1341 14.009 24.558 13.8334 25 13.8334C25.4419 13.8334 25.8658 14.009 26.1783 14.3215C26.4908 14.634 26.6664 15.0579 26.6664 15.4998C26.6664 15.9418 26.4908 16.3657 26.1783 16.6782L22.3566 20.4998L26.1783 24.3215Z" fill="#E38D13"/>
</svg>
