<svg width="33" height="34" viewBox="0 0 33 34" fill="none" xmlns="http://www.w3.org/2000/svg">
<path id="Vector" d="M32.4576 4.63598L28.3465 0.524868C27.9931 0.187953 27.5236 0 27.0354 0C26.5471 0 26.0776 0.187953 25.7242 0.524868L22.0687 4.19153H2.45757C1.8682 4.19153 1.30297 4.42566 0.886225 4.84241C0.469478 5.25916 0.235352 5.82439 0.235352 6.41376V30.8582C0.235352 31.4476 0.469478 32.0128 0.886225 32.4295C1.30297 32.8463 1.8682 33.0804 2.45757 33.0804H26.902C27.4914 33.0804 28.0566 32.8463 28.4734 32.4295C28.8901 32.0128 29.1242 31.4476 29.1242 30.8582V10.5915L32.4576 7.2582C32.805 6.9103 33.0001 6.43874 33.0001 5.94709C33.0001 5.45544 32.805 4.98388 32.4576 4.63598ZM16.7131 19.8915L12.0576 20.9249L13.1687 16.3138L23.7798 5.68042L27.3687 9.26931L16.7131 19.8915ZM28.5687 8.00265L24.9798 4.41376L27.0354 2.3582L30.6242 5.94709L28.5687 8.00265Z" fill="#E38D13"/>
</svg>
